# xmcd
# 
# Track frame offsets:
#     150
#     5666
#     16798
#     28494
#     39036
#     63936
#     74440
#     87232
#     104666
#     114914
#     140084
#     178158
#     191244
#     208986
#     221406
#     254284
# 
# Disc length: 3713
# 
# Revision: 5
# Processed by: cddbd v1.5.2PL0 Copyright (c) Steve Scherf et al.
# Submitted via: fre:ac v1.0.27
# 
DISCID=ed0e7f10
DTITLE=三宝 - 嘎达梅林电影原声音乐
DYEAR=2002
DGENRE=Soundtrack
TTITLE0=嘎达梅林主题
TTITLE1=童年
TTITLE2=沙暴
TTITLE3=离别
TTITLE4=摔跤－赛马
TTITLE5=牡丹主题
TTITLE6=家
TTITLE7=爱情主题
TTITLE8=嘎达被捕
TTITLE9=营救嘎达
TTITLE10=起义
TTITLE11=火烧
TTITLE12=友情
TTITLE13=女儿之死
TTITLE14=决战
TTITLE15=终曲
EXTD=YEAR: 2002
EXTT0=
EXTT1=
EXTT2=
EXTT3=
EXTT4=
EXTT5=
EXTT6=
EXTT7=
EXTT8=
EXTT9=
EXTT10=
EXTT11=
EXTT12=
EXTT13=
EXTT14=
EXTT15=
PLAYORDER=
